subject01_squat_2019-12-23_grf.mot
version=1
nRows=31
nColumns=19
inDegrees=yes
endheader
time	ground_force_vx	ground_force_vy	ground_force_vz	ground_force_px	ground_force_py	ground_force_pz	1_ground_force_vx	1_ground_force_vy	1_ground_force_vz	1_ground_force_px	1_ground_force_py	1_ground_force_pz	ground_torque_x	ground_torque_y	ground_torque_z	1_ground_torque_x	1_ground_torque_y	1_ground_torque_z
34.44	40.8052457011399	307.7524267348226	12.309434757095579	0.2744068672503048	0.0	0.23131554782726219	39.45885800495919	263.3903615319273	1.1181667769250567	0.7175606375158249	0.0	0.22573551324716767	-5.625108362853441	-7.564469302155269	-1.9864348138852648	-6.397089457589751	8.541958711594539	-0.4104580634976024
34.45	39.728756742238915	314.4235287842073	11.20958253854548	0.27543494415143577	0.0	0.23326332794466156	39.819953426136664	266.18226495264224	2.8766040391384853	0.7190098064602762	0.0	0.22228061850104291	-5.1335530937400025	-8.053587300321988	-1.7708616902436012	-7.382712887792331	8.242905130353362	-0.3349273320190705
34.46	38.48755077733327	321.70785645017673	9.893724507713179	0.2764025769918897	0.0	0.2351528004965349	39.33289613947957	268.33282745295304	4.059238190651443	0.7202379258570479	0.0	0.21926080442436124	-4.683886000374377	-8.535403162272772	-1.584281130943907	-8.25515225276641	7.9767422506871375	-0.2794170995644442
34.47	37.42362508348939	329.6985717247405	8.772938934048485	0.27708198002261036	0.0	0.23646492654582127	38.175783721238616	270.7742370037431	4.5176688096046345	0.7210256756257339	0.0	0.21712543443444696	-4.430082463522671	-8.944381951302562	-1.5038533360157913	-8.91017928391931	7.835793195208337	-0.26436636727284646
34.48	36.775044194121755	338.309216814036	8.12229970046757	0.2773485920368738	0.0	0.23690674438763046	36.648488142511624	274.2506543707781	4.2200031960588325	0.7212695520152336	0.0	0.2160835180539138	-4.457865336404086	-9.240932817946202	-1.5651533092319099	-9.302717124340045	7.875519972797443	-0.3065775625575066
34.49	36.630474704605774	347.37742423329263	8.027067049346172	0.27720812856083543	0.0	0.23646791714282148	35.10614298509853	279.2699178143672	3.269913985725472	0.7210023031868131	0.0	0.21606944795993743	-4.768625391820707	-9.422515534294641	-1.7564495622229128	-9.458274757030392	8.106225190343249	-0.4101631427245249
34.5	36.936314009981	356.71628649195327	8.40772737541127	0.2767717747676137	0.0	0.23536569150309739	33.886446641327645	286.1246254300109	1.9083433948799087	0.7203724866107656	0.0	0.21678677026293824	-5.2956076713646825	-9.517807047860918	-2.0310138826526143	-9.46443473300974	8.497985724283005	-0.5597640339491111
34.51	37.54281244226891	366.10538208194436	9.096627998452108	0.2761986049237332	0.0	0.2339219800408591	33.2457682676457	294.91957056578156	0.4864370494276301	0.7195947882178158	0.0	0.21780852988827018	-5.939936200739576	-9.569206733949425	-2.3297629634497237	-9.445455847962304	8.994209562528651	-0.7198725262796115
34.52	38.26475246477962	375.2742300428194	9.919537419737011	0.2756356784705091	0.0	0.2324370294968966	33.315081037836734	305.57520430476404	-0.5972094976331522	0.718888913211997	0.0	0.21870025368372303	-6.607869750819348	-9.614407965256198	-2.6028815289274236	-9.527775035187108	9.528481773039566	-0.841647507584931
34.53	38.93352682454162	383.9345164663231	10.743147896097367	0.2751808323055263	0.0	0.23111057135809276	34.083296811910145	317.81841336085733	-0.989272613384021	0.7184246858190189	0.0	0.21912975956366798	-7.234438322802255	-9.67634372471262	-2.821650922130738	-9.806613290903572	10.040406088693757	-0.8754514823039727
34.54	39.427143650568674	391.8675506407061	11.478069729252955	0.27487653464997114	0.0	0.23002683964507345	35.41123342798823	331.19193607943134	-0.4821813496075954	0.7182866436574872	0.0	0.2189357655049514	-7.788531827443461	-9.76421129394484	-2.9783057410673255	-10.323149978899943	10.487514988647636	-0.7853798380438838
34.55	39.67732521249277	399.01709893034166	12.056176649658092	0.2747264728062908	0.0	0.22918670405554725	37.07257039178152	345.1035849417154	0.9117287407931935	0.7184649036065075	0.0	0.21814200428853325	-8.264148810571887	-9.881381581464165	-3.0781164400181455	-11.057995505950174	10.851373000938251	-0.5614722554255269
34.56	39.66269192569242	405.5215992388284	12.412357585324667	0.2747185081112579	0.0	0.2285546868438504	38.81038679244688	358.91019147643374	2.945464842706649	0.7188717626644193	0.0	0.21692026546385892	-8.667110834406133	-10.032998197471109	-3.130628837583705	-11.941454616855962	11.137014064470723	-0.22533462380287717
34.57	39.39949012192869	411.6528376467758	12.489795223945615	0.27483983176472165	0.0	0.22809320575569011	40.39337108273767	372.01036109471863	5.198089023313435	0.719376718452564	0.0	0.21551906003925106	-9.00533975495367	-10.227820721351403	-3.1451447700856763	-12.876330606369287	11.366268739089922	0.17406582498610296
34.58	38.93597345384362	417.68221232011376	12.266304230157463	0.2750784501689971	0.0	0.22777225811154914	41.65761201765388	383.9172081251094	7.198631165678454	0.7198481171733713	0.0	0.21418128324685853	-9.286245102055444	-10.47324924869417	-3.131022889956455	-13.766108463841274	11.567201489196433	0.5745995588152228
34.59	38.348147932912774	423.7348244348182	11.782981259040906	0.27541395449087397	0.0	0.2275587250672492	42.526987085076826	394.29611923717965	8.5725637141584	0.720188928498517	0.0	0.21307424851179135	-9.52009433804577	-10.766622370634389	-3.099830125577298	-14.540588566093817	11.76311767887258	0.9208581155935137
34.6	37.73031244422297	429.6984547440049	11.154391107335394	0.2758060353224332	0.0	0.22739876112451657	43.01289708988747	402.97299474109457	9.155567644711645	0.7203573264742119	0.0	0.2122502016549166	-9.725419543224659	-11.0879771640237	-3.066114880268032	-15.17220246169212	11.964768367597724	1.182239591926589
34.61	37.17724640587711	435.23217813615634	10.550136391795384	0.27618988136789696	0.0	0.2272078772092542	43.19840872383615	409.93149283004175	9.028684890673915	0.7203684561877668	0.0	0.21164621458057875	-9.932048372703877	-11.398987037360037	-3.0456524293284786	-15.67900738215698	12.16823603430975	1.3622294795423602
34.62	36.76224613892923	439.8789247559204	10.152677169494979	0.2764837063764739	0.0	0.22687762985053908	43.212597101493195	415.3131696562058	8.461502033927971	0.7202798550185519	0.0	0.21112049641566644	-10.178960242204393	-11.650068492316803	-3.0519128728375216	-16.11426161481092	12.358800831187116	1.4956998576201557
34.63	36.51949344579034	443.24061679156085	10.107193614114927	0.2766070110398436	0.0	0.22629816827318314	43.20032922085717	419.4148127520581	7.790806533160186	0.7201674345637274	0.0	0.21051031254752672	-10.507068197541134	-11.7936856160357	-3.092159581896226	-16.546633617064625	12.518701034786309	1.6359023272664879
34.64	36.43783562501037	445.1425040501673	10.48208934807856	0.27650216370976466	0.0	0.22538692999714124	43.29255898591112	422.6610969335734	7.289592165747743	0.7201005625289193	0.0	0.2096894434739195	-10.949803323812445	-11.798551632128744	-3.1646795290475875	-17.038100532021993	12.635239844875914	1.8364321333267346
34.65	36.46882805720414	445.7153142921644	11.254172944413488	0.27614993912392644	0.0	0.22411042685298282	43.58254990504463	425.53693642717644	7.081217091406432	0.7201237790790247	0.0	0.2086045647356021	-11.525508899458249	-11.65874185003709	-3.258706803256396	-17.627099284832685	12.705852573615092	2.134650743030511
34.66	36.54754947524401	445.3625993889674	12.323291642070775	0.27557283863714876	0.0	0.22249009643747553	44.11332078196446	428.49060738232004	7.128395888984816	0.7202498671342101	0.0	0.2072799935738565	-12.234524350781866	-11.39422674612868	-3.3581490985702334	-18.322098525735807	12.738332656028062	2.5418838223179745
34.67	36.620159300402534	444.6331346509367	13.550231604624361	0.2748259577786681	0.0	0.2205915938789485	44.879232991052284	431.8420774110212	7.291964508857392	0.7204650148742321	0.0	0.2057938388876336	-13.061293657198918	-11.043364230922226	-3.448651258339902	-19.1064192665064	12.746569210721956	3.0429853749055122
34.68	36.66806214488471	444.05424319088394	14.803101975391161	0.27398007283712156	0.0	0.21850415290427508	45.839392302893856	435.73048918942686	7.4263409952403	0.7207425673530414	0.0	0.20423913007517358	-13.979594304732341	-10.650985577870578	-3.525295581319532	-19.950740115222374	12.743903728284508	3.6045324274815824
34.69	36.71795131354166	443.98813513775696	15.99520919330754	0.27310338728700084	0.0	0.21631902156396884	46.93559021494284	440.11415721419337	7.466469348862713	0.7210589451617444	0.0	0.20268712149819973	-14.95832772353207	-10.256592054536465	-3.5970365793370127	-20.827152670869665	12.736958722133684	4.187804468287676
34.7	36.83180629986271	444.55638349812955	17.10223137143648	0.27224759436301754	0.0	0.2141139150481529	48.10746551277421	444.8154523388702	7.46744108749889	0.7214049731932792	0.0	0.20116674400551715	-15.966088932209237	-9.886304850131202	-3.685153901887448	-21.71881723239438	12.722489681700734	4.760908752791426
34.71	37.079349152382136	445.650106130005	18.154872374928125	0.2714419644535857	0.0	0.21194686837450702	49.302296991303926	449.59344901457865	7.580779971866143	0.7217881800482537	0.0	0.19966645868761376	-16.973796278341567	-9.550572434659502	-3.8159357185001976	-22.621852024199868	12.688698301797743	5.305090115739322
34.72	37.503709039504855	447.0135694695776	19.211132559232645	0.270696453900916	0.0	0.20985966199306244	50.480919643995925	454.22466036508087	7.981474977469664	0.7222256445821639	0.0	0.1981554069018595	-17.955284458113663	-9.24767287688782	-4.010449723805544	-23.53976536608267	12.62073275777002	5.813464076843585
34.73	38.09514922656539	448.363427587145	20.318360841565294	0.27001146416350946	0.0	0.20788791107793073	51.62095289304449	458.56908343152315	8.782506044616031	0.722731126909103	0.0	0.19661281156353605	-18.886228194498468	-8.970974404290827	-4.275303229544176	-24.47391873685077	12.508216471746094	6.284548528610139
34.74	38.785119821553955	449.49418222380643	21.479202332078117	0.26938901958596595	0.0	0.20607199458023126	52.71629867914855	462.5982545632176	9.977200530472402	0.7233027963500223	0.0	0.1950513346076203	-19.7424650124589	-8.71644207991984	-4.597829661669023	-25.41492089310754	12.351450070481878	6.7156260404864065
